<?xml version="1.0" encoding="UTF-8" standalone="no"?>
<!-- Creator: CorelDRAW X8 -->

<svg
   xml:space="preserve"
   width="141.287mm"
   height="27.4016mm"
   version="1.1"
   style="shape-rendering:geometricPrecision; text-rendering:geometricPrecision; image-rendering:optimizeQuality; fill-rule:evenodd; clip-rule:evenodd"
   viewBox="0 0 14076 2730"
   id="svg32"
   sodipodi:docname="zeitgitter.svg"
   inkscape:version="1.1.1 (3bf5ae0d25, 2021-09-20)"
   xmlns:inkscape="http://www.inkscape.org/namespaces/inkscape"
   xmlns:sodipodi="http://sodipodi.sourceforge.net/DTD/sodipodi-0.dtd"
   xmlns="http://www.w3.org/2000/svg"
   xmlns:svg="http://www.w3.org/2000/svg"><sodipodi:namedview
   id="namedview34"
   pagecolor="#ffffff"
   bordercolor="#111111"
   borderopacity="1"
   inkscape:pageshadow="0"
   inkscape:pageopacity="0"
   inkscape:pagecheckerboard="1"
   inkscape:document-units="mm"
   showgrid="false"
   inkscape:zoom="1.5032681"
   inkscape:cx="156.65868"
   inkscape:cy="71.843472"
   inkscape:window-width="1920"
   inkscape:window-height="1043"
   inkscape:window-x="0"
   inkscape:window-y="0"
   inkscape:window-maximized="1"
   inkscape:current-layer="Ebene_x0020_1" />
 <defs
   id="defs4">
  <style
   type="text/css"
   id="style2">
   <![CDATA[
    .fil0 {fill:#008DD2}
    .fil1 {fill:black}
   ]]>
  </style>
 
   
   
   
   
   
   
   
   
   
   
   
  </defs>
 <g
   id="Ebene_x0020_1"
   inkscape:label="Ebene 1">
  <metadata
   id="CorelCorpID_0Corel-Layer" />
  <g
   id="g8"
   style="fill:#008dd2;fill-opacity:1">
    <path
   id="path111"
   class="fil0"
   d="m 3259,0 c 122,220 197,468 214,732 0,0 -237,0 -237,0 0,0 0,70 0,70 0,0 0,84 0,84 0,0 0,63 0,63 0,0 237,0 237,0 -55,912 -812,1634 -1736,1634 C 812,2583 56,1861 0,949 c 0,0 238,0 238,0 0,0 0,-63 0,-63 0,0 0,-84 0,-84 0,0 0,-70 0,-70 0,0 -238,0 -238,0 C 16,468 92,220 215,0 c 0,0 3044,0 3044,0 0,0 0,0 0,0 z M 1847,1994 c 85,40 143,127 143,229 0,140 -114,252 -253,252 -140,0 -254,-112 -254,-252 0,-102 58,-189 143,-229 0,0 0,-176 0,-176 0,0 0,-570 0,-570 0,0 0,-176 0,-176 -85,-42 -143,-128 -143,-229 0,-29 5,-57 14,-83 0,0 -366,-366 -366,-366 0,0 157,-155 157,-155 0,0 364,365 364,365 27,-10 55,-15 85,-15 139,0 253,114 253,254 0,29 -5,58 -14,84 0,0 1,1 1,1 0,0 0,0 0,0 0,0 366,365 366,365 25,-9 54,-14 83,-14 140,0 254,114 254,253 0,141 -114,254 -254,254 -140,0 -254,-113 -254,-254 0,-29 5,-57 14,-83 0,0 -339,-339 -339,-339 0,0 0,138 0,138 0,0 0,570 0,570 0,0 0,176 0,176 0,0 0,0 0,0 z"
   style="fill:#008dd2;fill-opacity:1" />
   </g><path
   id="path2032"
   class="fil1"
   d="m 4832,2178 c -209,-1 -407,-2 -592,-2 -186,0 -322,1 -410,5 0,0 -10,-112 -10,-112 0,0 605,-981 605,-981 0,0 -294,0 -294,0 -20,37 -39,113 -56,227 -40,7 -78,10 -113,10 -34,0 -74,-7 -119,-22 0,0 -23,-281 -23,-281 0,0 93,-76 93,-76 58,3 200,5 426,5 227,0 389,-2 485,-5 0,0 26,94 26,94 0,0 -623,994 -623,994 0,0 319,0 319,0 32,-52 61,-135 86,-248 42,-10 78,-15 106,-15 29,0 66,4 112,13 0,0 -18,394 -18,394 z" /><g
   id="g12">
    <path
   id="path2034"
   class="fil1"
   d="m 5326,1561 c 0,0 0,40 0,40 0,142 20,247 61,317 40,67 116,101 228,101 141,0 258,-47 349,-139 0,0 101,98 101,98 -69,70 -142,123 -218,160 -74,37 -172,55 -293,55 -196,0 -343,-54 -443,-164 -98,-111 -147,-265 -147,-461 0,-197 53,-352 157,-465 105,-115 253,-172 446,-172 194,0 330,44 409,131 80,88 124,219 135,393 0,0 -71,106 -71,106 0,0 -714,0 -714,0 z m 238,-506 c -154,0 -233,135 -238,405 0,0 425,-21 425,-21 0,-135 -13,-232 -40,-293 -27,-61 -76,-91 -147,-91 0,0 0,0 0,0 z" />
   </g><g
   id="g15">
    <path
   id="path2036"
   class="fil1"
   d="m 6356,1280 c 0,-61 -12,-102 -35,-124 -22,-24 -63,-37 -122,-41 0,0 8,-98 8,-98 22,-5 67,-14 136,-26 164,-25 273,-45 327,-60 0,0 43,23 43,23 0,0 0,1055 0,1055 42,32 96,55 162,68 0,0 -10,99 -10,99 0,0 -651,0 -651,0 0,0 10,-104 10,-104 56,-12 100,-33 132,-63 0,0 0,-729 0,-729 z m 182,-850 c 135,0 203,59 203,177 0,118 -68,177 -203,177 -133,0 -200,-59 -200,-177 0,-118 67,-177 200,-177 0,0 0,0 0,0 z" />
   </g><path
   id="path2038"
   class="fil1"
   d="m 7428,2186 c -91,0 -166,-25 -223,-74 -57,-48 -86,-123 -86,-222 0,0 0,-759 0,-759 0,0 -180,0 -180,0 0,0 0,-117 0,-117 176,-66 301,-171 377,-316 0,0 165,0 165,0 0,0 0,268 0,268 0,0 324,0 324,0 0,0 0,165 0,165 0,0 -327,0 -327,0 0,0 0,739 0,739 0,89 41,134 122,134 60,0 121,-21 182,-64 0,0 51,89 51,89 -117,105 -252,157 -405,157 0,0 0,0 0,0 z" /><path
   id="path2018"
   class="fil1"
   d="m 11367,2186 c -91,0 -165,-25 -222,-74 -58,-48 -86,-123 -86,-222 0,0 0,-759 0,-759 0,0 -180,0 -180,0 0,0 0,-117 0,-117 176,-66 301,-171 377,-316 0,0 165,0 165,0 0,0 0,268 0,268 0,0 324,0 324,0 0,0 0,165 0,165 0,0 -327,0 -327,0 0,0 0,739 0,739 0,89 41,134 122,134 60,0 121,-21 182,-64 0,0 50,89 50,89 -116,105 -251,157 -405,157 0,0 0,0 0,0 z" /><g
   id="g20">
    <path
   id="path2020"
   class="fil1"
   d="m 12164,1561 c 0,0 0,40 0,40 0,142 20,247 61,317 40,67 116,101 227,101 142,0 258,-47 350,-139 0,0 101,98 101,98 -69,70 -142,123 -218,160 -74,37 -172,55 -293,55 -196,0 -344,-54 -443,-164 -98,-111 -147,-265 -147,-461 0,-197 52,-352 157,-465 105,-115 253,-172 445,-172 194,0 331,44 410,131 80,88 124,219 134,393 0,0 -70,106 -70,106 0,0 -714,0 -714,0 z m 238,-506 c -154,0 -233,135 -238,405 0,0 425,-21 425,-21 0,-135 -13,-232 -40,-293 -27,-61 -76,-91 -147,-91 0,0 0,0 0,0 z" />
   </g><path
   id="path2022"
   class="fil1"
   d="m 13160,1280 c 0,-61 -12,-102 -36,-124 -23,-24 -65,-37 -124,-41 0,0 8,-98 8,-98 253,-47 397,-76 433,-86 0,0 45,23 45,23 0,0 21,167 21,167 86,-125 194,-188 326,-188 66,0 122,23 170,69 48,43 73,97 73,162 0,62 -18,111 -53,146 -34,34 -75,51 -124,51 -49,0 -89,-21 -119,-63 23,-29 35,-57 35,-84 0,-27 -12,-49 -35,-66 -22,-17 -49,-25 -81,-25 -32,0 -66,15 -101,46 -34,28 -61,66 -81,113 0,0 0,727 0,727 38,30 89,53 152,68 0,0 -11,99 -11,99 0,0 -640,0 -640,0 0,0 8,-104 8,-104 54,-10 98,-31 134,-63 0,0 0,-729 0,-729 z" /><g
   id="g24">
    <path
   id="path2025"
   class="fil0"
   d="m 7932,1379 c 0,-142 46,-252 137,-329 93,-80 214,-119 364,-119 152,0 273,28 362,83 24,-20 36,-49 36,-86 0,-37 -24,-67 -71,-91 0,-27 13,-50 40,-68 29,-19 63,-28 104,-28 40,0 73,13 99,38 27,24 40,56 40,96 0,41 -15,82 -45,124 -29,41 -65,72 -109,94 62,76 93,175 93,298 0,122 -47,221 -141,299 -95,76 -222,114 -382,114 0,0 -41,0 -41,0 0,0 -86,109 -86,109 5,33 54,50 147,50 0,0 106,0 106,0 167,0 295,33 382,99 88,64 132,158 132,281 0,125 -52,220 -155,286 -102,67 -252,101 -447,101 -196,0 -348,-28 -456,-84 -108,-54 -162,-132 -162,-235 0,-128 66,-236 197,-324 -25,-40 -37,-91 -37,-152 0,0 220,-154 220,-154 -103,-29 -183,-78 -241,-147 -57,-71 -86,-156 -86,-255 0,0 0,0 0,0 z m 592,797 c 0,0 -230,0 -230,0 0,0 -15,15 -15,15 -47,47 -71,108 -71,182 0,74 24,128 71,162 47,36 121,53 223,53 202,0 303,-71 303,-215 0,-131 -93,-197 -281,-197 0,0 0,0 0,0 z m -235,-792 c 0,116 11,195 33,235 24,41 70,61 139,61 69,0 117,-21 144,-63 27,-44 41,-123 41,-236 0,-115 -15,-197 -46,-248 -28,-50 -74,-76 -136,-76 -63,0 -107,26 -134,76 -27,51 -41,134 -41,251 0,0 0,0 0,0 z" />
   </g><g
   id="g27">
    <path
   id="path2027"
   class="fil0"
   d="m 9371,1280 c 0,-61 -12,-102 -36,-124 -21,-24 -62,-37 -121,-41 0,0 8,-98 8,-98 22,-5 67,-14 136,-26 164,-25 273,-45 327,-60 0,0 43,23 43,23 0,0 0,1055 0,1055 42,32 96,55 162,68 0,0 -10,99 -10,99 0,0 -651,0 -651,0 0,0 10,-104 10,-104 56,-12 100,-33 132,-63 0,0 0,-729 0,-729 z m 182,-850 c 135,0 203,59 203,177 0,118 -68,177 -203,177 -133,0 -200,-59 -200,-177 0,-118 67,-177 200,-177 0,0 0,0 0,0 z" />
   </g><path
   id="path2029"
   class="fil0"
   d="m 10442,2186 c -91,0 -165,-25 -222,-74 -58,-48 -86,-123 -86,-222 0,0 0,-759 0,-759 0,0 -180,0 -180,0 0,0 0,-117 0,-117 176,-66 301,-171 377,-316 0,0 165,0 165,0 0,0 0,268 0,268 0,0 324,0 324,0 0,0 0,165 0,165 0,0 -327,0 -327,0 0,0 0,739 0,739 0,89 41,134 122,134 60,0 121,-21 182,-64 0,0 50,89 50,89 -116,105 -251,157 -405,157 0,0 0,0 0,0 z" />
 </g>
</svg>
